<mxfile host="drawio-plugin" modified="2022-11-23T01:05:23.920Z" agent="5.0 (Windows NT 6.2; Win64; x64) AppleWebKit/537.36 (KHTML, like Gecko) Chrome/98.0.4758.102 Safari/537.36" etag="67SswgMlliSxp5p8r4D_" version="15.5.4" type="embed" pages="2"><diagram id="wWD442pLcZtegupS51Yr" name="Model Events"><mxGraphModel dx="1614" dy="1061" grid="1" gridSize="10" guides="1" tooltips="1" connect="1" arrows="1" fold="1" page="1" pageScale="1" pageWidth="850" pageHeight="1100" math="0" shadow="0"><root><mxCell id="rmU-ihcvBx1kRy9QWOGi-0"/><mxCell id="rmU-ihcvBx1kRy9QWOGi-1" parent="rmU-ihcvBx1kRy9QWOGi-0"/><mxCell id="qcHbM8w4NyvxGHL3y4oX-0" value="" style="endArrow=block;endSize=16;endFill=0;html=1;rounded=0;" parent="rmU-ihcvBx1kRy9QWOGi-1" source="Vw_80apSTHlWdTRGVAoT-1" target="Vw_80apSTHlWdTRGVAoT-0" edge="1"><mxGeometry width="160" relative="1" as="geometry"><mxPoint x="202.16981132075477" y="760" as="sourcePoint"/><mxPoint x="240" y="580" as="targetPoint"/></mxGeometry></mxCell><mxCell id="z9kJZAVJQiG7ItTawhwo-0" value="&lt;&lt;record&gt;&gt;&#10;NewPlayerEvent" style="swimlane;fontStyle=1;align=center;verticalAlign=top;childLayout=stackLayout;horizontal=1;startSize=40;horizontalStack=0;resizeParent=1;resizeParentMax=0;resizeLast=0;collapsible=1;marginBottom=0;" parent="rmU-ihcvBx1kRy9QWOGi-1" vertex="1"><mxGeometry x="280" y="990" width="270" height="68" as="geometry"/></mxCell><mxCell id="Vw_80apSTHlWdTRGVAoT-4" value="+ player(): Player" style="text;strokeColor=none;fillColor=none;align=left;verticalAlign=top;spacingLeft=4;spacingRight=4;overflow=hidden;rotatable=0;points=[[0,0.5],[1,0.5]];portConstraint=eastwest;" parent="z9kJZAVJQiG7ItTawhwo-0" vertex="1"><mxGeometry y="40" width="270" height="26" as="geometry"/></mxCell><mxCell id="z9kJZAVJQiG7ItTawhwo-1" value="" style="line;strokeWidth=1;fillColor=none;align=left;verticalAlign=middle;spacingTop=-1;spacingLeft=3;spacingRight=3;rotatable=0;labelPosition=right;points=[];portConstraint=eastwest;" parent="z9kJZAVJQiG7ItTawhwo-0" vertex="1"><mxGeometry y="66" width="270" height="2" as="geometry"/></mxCell><mxCell id="xiCb6o9OBhhiRX8M3Lgq-0" value="&lt;&lt;record&gt;&gt;&#10;BoardPlaceEvent" style="swimlane;fontStyle=1;align=center;verticalAlign=top;childLayout=stackLayout;horizontal=1;startSize=40;horizontalStack=0;resizeParent=1;resizeParentMax=0;resizeLast=0;collapsible=1;marginBottom=0;" parent="rmU-ihcvBx1kRy9QWOGi-1" vertex="1"><mxGeometry x="570" y="465" width="270" height="120" as="geometry"/></mxCell><mxCell id="xiCb6o9OBhhiRX8M3Lgq-1" value="" style="line;strokeWidth=1;fillColor=none;align=left;verticalAlign=middle;spacingTop=-1;spacingLeft=3;spacingRight=3;rotatable=0;labelPosition=right;points=[];portConstraint=eastwest;" parent="xiCb6o9OBhhiRX8M3Lgq-0" vertex="1"><mxGeometry y="40" width="270" height="2" as="geometry"/></mxCell><mxCell id="xiCb6o9OBhhiRX8M3Lgq-5" value="+ placedTiles(): List&lt;Tile&gt;&#10;" style="text;strokeColor=none;fillColor=none;align=left;verticalAlign=top;spacingLeft=4;spacingRight=4;overflow=hidden;rotatable=0;points=[[0,0.5],[1,0.5]];portConstraint=eastwest;" parent="xiCb6o9OBhhiRX8M3Lgq-0" vertex="1"><mxGeometry y="42" width="270" height="26" as="geometry"/></mxCell><mxCell id="xiCb6o9OBhhiRX8M3Lgq-6" value="+ wordOrigin: Point" style="text;strokeColor=none;fillColor=none;align=left;verticalAlign=top;spacingLeft=4;spacingRight=4;overflow=hidden;rotatable=0;points=[[0,0.5],[1,0.5]];portConstraint=eastwest;" parent="xiCb6o9OBhhiRX8M3Lgq-0" vertex="1"><mxGeometry y="68" width="270" height="26" as="geometry"/></mxCell><mxCell id="xiCb6o9OBhhiRX8M3Lgq-7" value="+ direction: Board.Direction" style="text;strokeColor=none;fillColor=none;align=left;verticalAlign=top;spacingLeft=4;spacingRight=4;overflow=hidden;rotatable=0;points=[[0,0.5],[1,0.5]];portConstraint=eastwest;" parent="xiCb6o9OBhhiRX8M3Lgq-0" vertex="1"><mxGeometry y="94" width="270" height="26" as="geometry"/></mxCell><mxCell id="Vw_80apSTHlWdTRGVAoT-0" value="«interface»&lt;br&gt;&lt;b&gt;ModelEvent&lt;/b&gt;" style="html=1;" parent="rmU-ihcvBx1kRy9QWOGi-1" vertex="1"><mxGeometry x="360" y="500" width="110" height="50" as="geometry"/></mxCell><mxCell id="Vw_80apSTHlWdTRGVAoT-1" value="«interface»&lt;br&gt;&lt;b&gt;HandChangeEvent&lt;/b&gt;" style="html=1;" parent="rmU-ihcvBx1kRy9QWOGi-1" vertex="1"><mxGeometry x="360" y="850" width="110" height="50" as="geometry"/></mxCell><mxCell id="Vw_80apSTHlWdTRGVAoT-2" value="" style="endArrow=block;dashed=1;endFill=0;endSize=12;html=1;rounded=0;" parent="rmU-ihcvBx1kRy9QWOGi-1" source="z9kJZAVJQiG7ItTawhwo-0" target="Vw_80apSTHlWdTRGVAoT-1" edge="1"><mxGeometry width="160" relative="1" as="geometry"><mxPoint x="210" y="710" as="sourcePoint"/><mxPoint x="370" y="710" as="targetPoint"/></mxGeometry></mxCell><mxCell id="Vw_80apSTHlWdTRGVAoT-5" value="&lt;&lt;record&gt;&gt;&#10;TileSelectEvent" style="swimlane;fontStyle=1;align=center;verticalAlign=top;childLayout=stackLayout;horizontal=1;startSize=40;horizontalStack=0;resizeParent=1;resizeParentMax=0;resizeLast=0;collapsible=1;marginBottom=0;" parent="rmU-ihcvBx1kRy9QWOGi-1" vertex="1"><mxGeometry x="30" y="828" width="270" height="94" as="geometry"/></mxCell><mxCell id="Vw_80apSTHlWdTRGVAoT-6" value="+ tile(): Tile" style="text;strokeColor=none;fillColor=none;align=left;verticalAlign=top;spacingLeft=4;spacingRight=4;overflow=hidden;rotatable=0;points=[[0,0.5],[1,0.5]];portConstraint=eastwest;" parent="Vw_80apSTHlWdTRGVAoT-5" vertex="1"><mxGeometry y="40" width="270" height="26" as="geometry"/></mxCell><mxCell id="Vw_80apSTHlWdTRGVAoT-9" value="+ selected(): boolean" style="text;strokeColor=none;fillColor=none;align=left;verticalAlign=top;spacingLeft=4;spacingRight=4;overflow=hidden;rotatable=0;points=[[0,0.5],[1,0.5]];portConstraint=eastwest;" parent="Vw_80apSTHlWdTRGVAoT-5" vertex="1"><mxGeometry y="66" width="270" height="26" as="geometry"/></mxCell><mxCell id="Vw_80apSTHlWdTRGVAoT-7" value="" style="line;strokeWidth=1;fillColor=none;align=left;verticalAlign=middle;spacingTop=-1;spacingLeft=3;spacingRight=3;rotatable=0;labelPosition=right;points=[];portConstraint=eastwest;" parent="Vw_80apSTHlWdTRGVAoT-5" vertex="1"><mxGeometry y="92" width="270" height="2" as="geometry"/></mxCell><mxCell id="Vw_80apSTHlWdTRGVAoT-8" value="" style="endArrow=block;dashed=1;endFill=0;endSize=12;html=1;rounded=0;" parent="rmU-ihcvBx1kRy9QWOGi-1" source="Vw_80apSTHlWdTRGVAoT-5" target="Vw_80apSTHlWdTRGVAoT-1" edge="1"><mxGeometry width="160" relative="1" as="geometry"><mxPoint x="325" y="690" as="sourcePoint"/><mxPoint x="254.41176470588232" y="630" as="targetPoint"/></mxGeometry></mxCell><mxCell id="Vw_80apSTHlWdTRGVAoT-10" value="&lt;&lt;record&gt;&gt;&#10;PlayerChangeEvent" style="swimlane;fontStyle=1;align=center;verticalAlign=top;childLayout=stackLayout;horizontal=1;startSize=40;horizontalStack=0;resizeParent=1;resizeParentMax=0;resizeLast=0;collapsible=1;marginBottom=0;" parent="rmU-ihcvBx1kRy9QWOGi-1" vertex="1"><mxGeometry x="10" y="491" width="270" height="68" as="geometry"/></mxCell><mxCell id="Vw_80apSTHlWdTRGVAoT-11" value="+ playesr(): List&lt;Player&gt;" style="text;strokeColor=none;fillColor=none;align=left;verticalAlign=top;spacingLeft=4;spacingRight=4;overflow=hidden;rotatable=0;points=[[0,0.5],[1,0.5]];portConstraint=eastwest;" parent="Vw_80apSTHlWdTRGVAoT-10" vertex="1"><mxGeometry y="40" width="270" height="26" as="geometry"/></mxCell><mxCell id="Vw_80apSTHlWdTRGVAoT-12" value="" style="line;strokeWidth=1;fillColor=none;align=left;verticalAlign=middle;spacingTop=-1;spacingLeft=3;spacingRight=3;rotatable=0;labelPosition=right;points=[];portConstraint=eastwest;" parent="Vw_80apSTHlWdTRGVAoT-10" vertex="1"><mxGeometry y="66" width="270" height="2" as="geometry"/></mxCell><mxCell id="Vw_80apSTHlWdTRGVAoT-13" value="" style="endArrow=block;dashed=1;endFill=0;endSize=12;html=1;rounded=0;" parent="rmU-ihcvBx1kRy9QWOGi-1" source="Vw_80apSTHlWdTRGVAoT-10" target="Vw_80apSTHlWdTRGVAoT-0" edge="1"><mxGeometry width="160" relative="1" as="geometry"><mxPoint x="325" y="690" as="sourcePoint"/><mxPoint x="254.41176470588232" y="630" as="targetPoint"/></mxGeometry></mxCell><mxCell id="Vw_80apSTHlWdTRGVAoT-14" value="" style="endArrow=block;dashed=1;endFill=0;endSize=12;html=1;rounded=0;" parent="rmU-ihcvBx1kRy9QWOGi-1" source="xiCb6o9OBhhiRX8M3Lgq-0" target="Vw_80apSTHlWdTRGVAoT-0" edge="1"><mxGeometry width="160" relative="1" as="geometry"><mxPoint x="620" y="540" as="sourcePoint"/><mxPoint x="411.18784530386745" y="510" as="targetPoint"/></mxGeometry></mxCell><mxCell id="Vw_80apSTHlWdTRGVAoT-15" value="&lt;&lt;record&gt;&gt;&#10;DiscardEvent" style="swimlane;fontStyle=1;align=center;verticalAlign=top;childLayout=stackLayout;horizontal=1;startSize=40;horizontalStack=0;resizeParent=1;resizeParentMax=0;resizeLast=0;collapsible=1;marginBottom=0;" parent="rmU-ihcvBx1kRy9QWOGi-1" vertex="1"><mxGeometry x="570" y="640" width="270" height="68" as="geometry"/></mxCell><mxCell id="Vw_80apSTHlWdTRGVAoT-16" value="" style="line;strokeWidth=1;fillColor=none;align=left;verticalAlign=middle;spacingTop=-1;spacingLeft=3;spacingRight=3;rotatable=0;labelPosition=right;points=[];portConstraint=eastwest;" parent="Vw_80apSTHlWdTRGVAoT-15" vertex="1"><mxGeometry y="40" width="270" height="2" as="geometry"/></mxCell><mxCell id="Vw_80apSTHlWdTRGVAoT-17" value="+ used(): List&lt;Tile&gt;&#10;" style="text;strokeColor=none;fillColor=none;align=left;verticalAlign=top;spacingLeft=4;spacingRight=4;overflow=hidden;rotatable=0;points=[[0,0.5],[1,0.5]];portConstraint=eastwest;" parent="Vw_80apSTHlWdTRGVAoT-15" vertex="1"><mxGeometry y="42" width="270" height="26" as="geometry"/></mxCell><mxCell id="Vw_80apSTHlWdTRGVAoT-20" value="" style="endArrow=block;dashed=1;endFill=0;endSize=12;html=1;rounded=0;" parent="rmU-ihcvBx1kRy9QWOGi-1" source="Vw_80apSTHlWdTRGVAoT-15" target="Vw_80apSTHlWdTRGVAoT-0" edge="1"><mxGeometry width="160" relative="1" as="geometry"><mxPoint x="580" y="535" as="sourcePoint"/><mxPoint x="480" y="535" as="targetPoint"/></mxGeometry></mxCell><mxCell id="Vw_80apSTHlWdTRGVAoT-21" value="&lt;&lt;record&gt;&gt;&#10;ME_InvalidPlacement" style="swimlane;fontStyle=1;align=center;verticalAlign=top;childLayout=stackLayout;horizontal=1;startSize=40;horizontalStack=0;resizeParent=1;resizeParentMax=0;resizeLast=0;collapsible=1;marginBottom=0;" parent="rmU-ihcvBx1kRy9QWOGi-1" vertex="1"><mxGeometry x="50" y="610" width="270" height="68" as="geometry"/></mxCell><mxCell id="Vw_80apSTHlWdTRGVAoT-22" value="" style="line;strokeWidth=1;fillColor=none;align=left;verticalAlign=middle;spacingTop=-1;spacingLeft=3;spacingRight=3;rotatable=0;labelPosition=right;points=[];portConstraint=eastwest;" parent="Vw_80apSTHlWdTRGVAoT-21" vertex="1"><mxGeometry y="40" width="270" height="2" as="geometry"/></mxCell><mxCell id="Vw_80apSTHlWdTRGVAoT-23" value="+ status(): BoardValidator.Status" style="text;strokeColor=none;fillColor=none;align=left;verticalAlign=top;spacingLeft=4;spacingRight=4;overflow=hidden;rotatable=0;points=[[0,0.5],[1,0.5]];portConstraint=eastwest;" parent="Vw_80apSTHlWdTRGVAoT-21" vertex="1"><mxGeometry y="42" width="270" height="26" as="geometry"/></mxCell><mxCell id="Vw_80apSTHlWdTRGVAoT-24" value="" style="endArrow=block;dashed=1;endFill=0;endSize=12;html=1;rounded=0;" parent="rmU-ihcvBx1kRy9QWOGi-1" source="Vw_80apSTHlWdTRGVAoT-21" target="Vw_80apSTHlWdTRGVAoT-0" edge="1"><mxGeometry width="160" relative="1" as="geometry"><mxPoint x="290" y="535" as="sourcePoint"/><mxPoint x="370" y="535" as="targetPoint"/></mxGeometry></mxCell><mxCell id="t6ox8D-e_vs96RyVei8v-0" value="&lt;&lt;record&gt;&gt;&#10;AIPlayingEvent" style="swimlane;fontStyle=1;align=center;verticalAlign=top;childLayout=stackLayout;horizontal=1;startSize=40;horizontalStack=0;resizeParent=1;resizeParentMax=0;resizeLast=0;collapsible=1;marginBottom=0;" parent="rmU-ihcvBx1kRy9QWOGi-1" vertex="1"><mxGeometry x="280" y="310" width="270" height="68" as="geometry"/></mxCell><mxCell id="t6ox8D-e_vs96RyVei8v-1" value="" style="line;strokeWidth=1;fillColor=none;align=left;verticalAlign=middle;spacingTop=-1;spacingLeft=3;spacingRight=3;rotatable=0;labelPosition=right;points=[];portConstraint=eastwest;" parent="t6ox8D-e_vs96RyVei8v-0" vertex="1"><mxGeometry y="40" width="270" height="2" as="geometry"/></mxCell><mxCell id="t6ox8D-e_vs96RyVei8v-2" value="+ isPlaying(): boolean" style="text;strokeColor=none;fillColor=none;align=left;verticalAlign=top;spacingLeft=4;spacingRight=4;overflow=hidden;rotatable=0;points=[[0,0.5],[1,0.5]];portConstraint=eastwest;" parent="t6ox8D-e_vs96RyVei8v-0" vertex="1"><mxGeometry y="42" width="270" height="26" as="geometry"/></mxCell><mxCell id="t6ox8D-e_vs96RyVei8v-3" value="" style="endArrow=block;dashed=1;endFill=0;endSize=12;html=1;rounded=0;" parent="rmU-ihcvBx1kRy9QWOGi-1" source="t6ox8D-e_vs96RyVei8v-0" target="Vw_80apSTHlWdTRGVAoT-0" edge="1"><mxGeometry width="160" relative="1" as="geometry"><mxPoint x="260.71428571428567" y="620" as="sourcePoint"/><mxPoint x="376.68067226890753" y="560" as="targetPoint"/></mxGeometry></mxCell></root></mxGraphModel></diagram><diagram id="HzvmTfayR-zwZSbMXwx_" name="Controller Events"><mxGraphModel dx="1614" dy="1061" grid="1" gridSize="10" guides="1" tooltips="1" connect="1" arrows="1" fold="1" page="1" pageScale="1" pageWidth="850" pageHeight="1100" math="0" shadow="0"><root><mxCell id="gsrCCS2JsrCdOVJIwb3w-0"/><mxCell id="gsrCCS2JsrCdOVJIwb3w-1" parent="gsrCCS2JsrCdOVJIwb3w-0"/><mxCell id="brs3608TVFoqe0dMVl2J-0" value="«interface»&lt;br&gt;&lt;b&gt;ControllerEvent&lt;/b&gt;" style="html=1;" parent="gsrCCS2JsrCdOVJIwb3w-1" vertex="1"><mxGeometry x="160" y="208" width="110" height="50" as="geometry"/></mxCell><mxCell id="brs3608TVFoqe0dMVl2J-1" value="«interface»&lt;br&gt;&lt;b&gt;TurnActionEvent&lt;/b&gt;" style="html=1;" parent="gsrCCS2JsrCdOVJIwb3w-1" vertex="1"><mxGeometry x="160" y="410" width="110" height="50" as="geometry"/></mxCell><mxCell id="R2oRg5kF2t6-XCEy7EDn-0" value="" style="endArrow=block;endSize=16;endFill=0;html=1;rounded=0;" parent="gsrCCS2JsrCdOVJIwb3w-1" source="brs3608TVFoqe0dMVl2J-1" target="brs3608TVFoqe0dMVl2J-0" edge="1"><mxGeometry width="160" relative="1" as="geometry"><mxPoint x="415" y="850" as="sourcePoint"/><mxPoint x="415" y="550" as="targetPoint"/></mxGeometry></mxCell><mxCell id="Y3tI2XBF3GKn8JGQEipK-0" value="" style="endArrow=block;dashed=1;endFill=0;endSize=12;html=1;rounded=0;" parent="gsrCCS2JsrCdOVJIwb3w-1" source="JIl7D9-X4OJOdl7_wzX--6" target="brs3608TVFoqe0dMVl2J-1" edge="1"><mxGeometry width="160" relative="1" as="geometry"><mxPoint x="410" y="460" as="sourcePoint"/><mxPoint x="415" y="500" as="targetPoint"/><Array as="points"/></mxGeometry></mxCell><mxCell id="JIl7D9-X4OJOdl7_wzX--0" value="&lt;&lt;record&gt;&gt;&#10;TileClickEvent" style="swimlane;fontStyle=1;align=center;verticalAlign=top;childLayout=stackLayout;horizontal=1;startSize=40;horizontalStack=0;resizeParent=1;resizeParentMax=0;resizeLast=0;collapsible=1;marginBottom=0;" parent="gsrCCS2JsrCdOVJIwb3w-1" vertex="1"><mxGeometry x="490" y="190" width="270" height="68" as="geometry"/></mxCell><mxCell id="JIl7D9-X4OJOdl7_wzX--1" value="" style="line;strokeWidth=1;fillColor=none;align=left;verticalAlign=middle;spacingTop=-1;spacingLeft=3;spacingRight=3;rotatable=0;labelPosition=right;points=[];portConstraint=eastwest;" parent="JIl7D9-X4OJOdl7_wzX--0" vertex="1"><mxGeometry y="40" width="270" height="2" as="geometry"/></mxCell><mxCell id="JIl7D9-X4OJOdl7_wzX--2" value="+ origin(): Point" style="text;strokeColor=none;fillColor=none;align=left;verticalAlign=top;spacingLeft=4;spacingRight=4;overflow=hidden;rotatable=0;points=[[0,0.5],[1,0.5]];portConstraint=eastwest;" parent="JIl7D9-X4OJOdl7_wzX--0" vertex="1"><mxGeometry y="42" width="270" height="26" as="geometry"/></mxCell><mxCell id="JIl7D9-X4OJOdl7_wzX--3" value="&lt;&lt;record&gt;&gt;&#10;C_BoardClickEvent" style="swimlane;fontStyle=1;align=center;verticalAlign=top;childLayout=stackLayout;horizontal=1;startSize=40;horizontalStack=0;resizeParent=1;resizeParentMax=0;resizeLast=0;collapsible=1;marginBottom=0;" parent="gsrCCS2JsrCdOVJIwb3w-1" vertex="1"><mxGeometry x="50" y="50" width="270" height="68" as="geometry"/></mxCell><mxCell id="JIl7D9-X4OJOdl7_wzX--4" value="" style="line;strokeWidth=1;fillColor=none;align=left;verticalAlign=middle;spacingTop=-1;spacingLeft=3;spacingRight=3;rotatable=0;labelPosition=right;points=[];portConstraint=eastwest;" parent="JIl7D9-X4OJOdl7_wzX--3" vertex="1"><mxGeometry y="40" width="270" height="2" as="geometry"/></mxCell><mxCell id="JIl7D9-X4OJOdl7_wzX--5" value="+ origin(): Point" style="text;strokeColor=none;fillColor=none;align=left;verticalAlign=top;spacingLeft=4;spacingRight=4;overflow=hidden;rotatable=0;points=[[0,0.5],[1,0.5]];portConstraint=eastwest;" parent="JIl7D9-X4OJOdl7_wzX--3" vertex="1"><mxGeometry y="42" width="270" height="26" as="geometry"/></mxCell><mxCell id="JIl7D9-X4OJOdl7_wzX--6" value="&lt;&lt;record&gt;&gt;&#10;PlaceClickEvent" style="swimlane;fontStyle=1;align=center;verticalAlign=top;childLayout=stackLayout;horizontal=1;startSize=40;horizontalStack=0;resizeParent=1;resizeParentMax=0;resizeLast=0;collapsible=1;marginBottom=0;" parent="gsrCCS2JsrCdOVJIwb3w-1" vertex="1"><mxGeometry x="80" y="580" width="270" height="94" as="geometry"/></mxCell><mxCell id="JIl7D9-X4OJOdl7_wzX--7" value="" style="line;strokeWidth=1;fillColor=none;align=left;verticalAlign=middle;spacingTop=-1;spacingLeft=3;spacingRight=3;rotatable=0;labelPosition=right;points=[];portConstraint=eastwest;" parent="JIl7D9-X4OJOdl7_wzX--6" vertex="1"><mxGeometry y="40" width="270" height="2" as="geometry"/></mxCell><mxCell id="JIl7D9-X4OJOdl7_wzX--8" value="+ origin(): Point" style="text;strokeColor=none;fillColor=none;align=left;verticalAlign=top;spacingLeft=4;spacingRight=4;overflow=hidden;rotatable=0;points=[[0,0.5],[1,0.5]];portConstraint=eastwest;" parent="JIl7D9-X4OJOdl7_wzX--6" vertex="1"><mxGeometry y="42" width="270" height="26" as="geometry"/></mxCell><mxCell id="V0j-7GASQnaAZKKVvhig-0" value="+ dir: Board.Direction" style="text;strokeColor=none;fillColor=none;align=left;verticalAlign=top;spacingLeft=4;spacingRight=4;overflow=hidden;rotatable=0;points=[[0,0.5],[1,0.5]];portConstraint=eastwest;" parent="JIl7D9-X4OJOdl7_wzX--6" vertex="1"><mxGeometry y="68" width="270" height="26" as="geometry"/></mxCell><mxCell id="V0j-7GASQnaAZKKVvhig-1" value="" style="endArrow=block;dashed=1;endFill=0;endSize=12;html=1;rounded=0;" parent="gsrCCS2JsrCdOVJIwb3w-1" source="JIl7D9-X4OJOdl7_wzX--3" target="brs3608TVFoqe0dMVl2J-0" edge="1"><mxGeometry width="160" relative="1" as="geometry"><mxPoint x="435" y="470.56521739130426" as="sourcePoint"/><mxPoint x="280" y="451.695652173913" as="targetPoint"/><Array as="points"/></mxGeometry></mxCell><mxCell id="8Af9sjn8kiLfEmW0srkX-0" value="" style="endArrow=block;dashed=1;endFill=0;endSize=12;html=1;rounded=0;" edge="1" parent="gsrCCS2JsrCdOVJIwb3w-1" source="JIl7D9-X4OJOdl7_wzX--0" target="brs3608TVFoqe0dMVl2J-0"><mxGeometry width="160" relative="1" as="geometry"><mxPoint x="472.19827586206884" y="630" as="sourcePoint"/><mxPoint x="258.405172413793" y="470" as="targetPoint"/><Array as="points"/></mxGeometry></mxCell><mxCell id="8Af9sjn8kiLfEmW0srkX-1" value="&lt;&lt;record&gt;&gt;&#10;C_DirectionChangeEvent" style="swimlane;fontStyle=1;align=center;verticalAlign=top;childLayout=stackLayout;horizontal=1;startSize=40;horizontalStack=0;resizeParent=1;resizeParentMax=0;resizeLast=0;collapsible=1;marginBottom=0;" vertex="1" parent="gsrCCS2JsrCdOVJIwb3w-1"><mxGeometry x="425" y="50" width="270" height="68" as="geometry"/></mxCell><mxCell id="8Af9sjn8kiLfEmW0srkX-2" value="" style="line;strokeWidth=1;fillColor=none;align=left;verticalAlign=middle;spacingTop=-1;spacingLeft=3;spacingRight=3;rotatable=0;labelPosition=right;points=[];portConstraint=eastwest;" vertex="1" parent="8Af9sjn8kiLfEmW0srkX-1"><mxGeometry y="40" width="270" height="2" as="geometry"/></mxCell><mxCell id="8Af9sjn8kiLfEmW0srkX-3" value="+ origin(): Point" style="text;strokeColor=none;fillColor=none;align=left;verticalAlign=top;spacingLeft=4;spacingRight=4;overflow=hidden;rotatable=0;points=[[0,0.5],[1,0.5]];portConstraint=eastwest;" vertex="1" parent="8Af9sjn8kiLfEmW0srkX-1"><mxGeometry y="42" width="270" height="26" as="geometry"/></mxCell><mxCell id="8Af9sjn8kiLfEmW0srkX-4" value="" style="endArrow=block;dashed=1;endFill=0;endSize=12;html=1;rounded=0;" edge="1" parent="gsrCCS2JsrCdOVJIwb3w-1" source="8Af9sjn8kiLfEmW0srkX-1" target="brs3608TVFoqe0dMVl2J-0"><mxGeometry width="160" relative="1" as="geometry"><mxPoint x="470" y="489.4868421052631" as="sourcePoint"/><mxPoint x="280" y="454.9868421052631" as="targetPoint"/><Array as="points"/></mxGeometry></mxCell><mxCell id="8Af9sjn8kiLfEmW0srkX-5" value="C_SkipEvent" style="swimlane;fontStyle=1;align=center;verticalAlign=top;childLayout=stackLayout;horizontal=1;startSize=20;horizontalStack=0;resizeParent=1;resizeParentMax=0;resizeLast=0;collapsible=1;marginBottom=0;" vertex="1" parent="gsrCCS2JsrCdOVJIwb3w-1"><mxGeometry x="470" y="424" width="270" height="22" as="geometry"/></mxCell><mxCell id="8Af9sjn8kiLfEmW0srkX-6" value="" style="line;strokeWidth=1;fillColor=none;align=left;verticalAlign=middle;spacingTop=-1;spacingLeft=3;spacingRight=3;rotatable=0;labelPosition=right;points=[];portConstraint=eastwest;" vertex="1" parent="8Af9sjn8kiLfEmW0srkX-5"><mxGeometry y="20" width="270" height="2" as="geometry"/></mxCell><mxCell id="8Af9sjn8kiLfEmW0srkX-8" value="" style="endArrow=block;dashed=1;endFill=0;endSize=12;html=1;rounded=0;" edge="1" parent="gsrCCS2JsrCdOVJIwb3w-1" source="8Af9sjn8kiLfEmW0srkX-5" target="brs3608TVFoqe0dMVl2J-1"><mxGeometry width="160" relative="1" as="geometry"><mxPoint x="500" y="236.96341463414637" as="sourcePoint"/><mxPoint x="280" y="241.79268292682923" as="targetPoint"/><Array as="points"/></mxGeometry></mxCell><mxCell id="8Af9sjn8kiLfEmW0srkX-9" value="DiscardClickEvent" style="swimlane;fontStyle=1;align=center;verticalAlign=top;childLayout=stackLayout;horizontal=1;startSize=20;horizontalStack=0;resizeParent=1;resizeParentMax=0;resizeLast=0;collapsible=1;marginBottom=0;" vertex="1" parent="gsrCCS2JsrCdOVJIwb3w-1"><mxGeometry x="470" y="540" width="270" height="22" as="geometry"/></mxCell><mxCell id="8Af9sjn8kiLfEmW0srkX-10" value="" style="line;strokeWidth=1;fillColor=none;align=left;verticalAlign=middle;spacingTop=-1;spacingLeft=3;spacingRight=3;rotatable=0;labelPosition=right;points=[];portConstraint=eastwest;" vertex="1" parent="8Af9sjn8kiLfEmW0srkX-9"><mxGeometry y="20" width="270" height="2" as="geometry"/></mxCell><mxCell id="8Af9sjn8kiLfEmW0srkX-11" value="" style="endArrow=block;dashed=1;endFill=0;endSize=12;html=1;rounded=0;" edge="1" parent="gsrCCS2JsrCdOVJIwb3w-1" source="8Af9sjn8kiLfEmW0srkX-9" target="brs3608TVFoqe0dMVl2J-1"><mxGeometry width="160" relative="1" as="geometry"><mxPoint x="480" y="445" as="sourcePoint"/><mxPoint x="280" y="445" as="targetPoint"/><Array as="points"/></mxGeometry></mxCell></root></mxGraphModel></diagram></mxfile>